<svg width="178" height="32" viewBox="0 0 178 32" fill="none" xmlns="http://www.w3.org/2000/svg">
    <path
        d="M46.6951 21C46.4605 21 46.2631 20.92 46.1031 20.76C45.9431 20.6 45.8631 20.4027 45.8631 20.168V9.336C45.8631 9.09067 45.9431 8.89333 46.1031 8.744C46.2631 8.584 46.4605 8.504 46.6951 8.504C47.0151 8.504 47.2605 8.65333 47.4311 8.952L52.4391 18.984H51.9271L56.8071 8.952C56.9778 8.65333 57.2231 8.504 57.5431 8.504C57.7778 8.504 57.9751 8.584 58.1351 8.744C58.2951 8.89333 58.3751 9.09067 58.3751 9.336V20.168C58.3751 20.4027 58.2898 20.6 58.1191 20.76C57.9591 20.92 57.7671 21 57.5431 21C57.3085 21 57.1111 20.92 56.9511 20.76C56.7911 20.6 56.7111 20.4027 56.7111 20.168V11.64L57.0311 11.56L52.8391 20.104C52.6578 20.3813 52.4178 20.52 52.1191 20.52C51.7671 20.52 51.5111 20.3547 51.3511 20.024L47.2071 11.72L47.5271 11.64V20.168C47.5271 20.4027 47.4471 20.6 47.2871 20.76C47.1271 20.92 46.9298 21 46.6951 21ZM64.8619 21.08C64.1259 21.08 63.4645 20.9253 62.8779 20.616C62.3019 20.296 61.8432 19.832 61.5019 19.224C61.1712 18.616 61.0059 17.8693 61.0059 16.984V13.048C61.0059 12.8133 61.0805 12.6213 61.2299 12.472C61.3899 12.312 61.5872 12.232 61.8219 12.232C62.0565 12.232 62.2485 12.312 62.3979 12.472C62.5579 12.6213 62.6379 12.8133 62.6379 13.048V16.984C62.6379 17.5813 62.7499 18.0773 62.9739 18.472C63.1979 18.856 63.5019 19.144 63.8859 19.336C64.2699 19.5173 64.7019 19.608 65.1819 19.608C65.6405 19.608 66.0459 19.5173 66.3979 19.336C66.7605 19.1547 67.0485 18.9093 67.2619 18.6C67.4752 18.2907 67.5819 17.944 67.5819 17.56H68.5899C68.5899 18.2213 68.4245 18.8187 68.0939 19.352C67.7739 19.8853 67.3312 20.3067 66.7659 20.616C66.2112 20.9253 65.5765 21.08 64.8619 21.08ZM68.3979 21C68.1632 21 67.9659 20.9253 67.8059 20.776C67.6565 20.616 67.5819 20.4187 67.5819 20.184V13.048C67.5819 12.8027 67.6565 12.6053 67.8059 12.456C67.9659 12.3067 68.1632 12.232 68.3979 12.232C68.6432 12.232 68.8405 12.3067 68.9899 12.456C69.1392 12.6053 69.2139 12.8027 69.2139 13.048V20.184C69.2139 20.4187 69.1392 20.616 68.9899 20.776C68.8405 20.9253 68.6432 21 68.3979 21ZM73.9281 21C73.4588 21 73.0428 20.872 72.6801 20.616C72.3175 20.36 72.0348 20.0133 71.8321 19.576C71.6295 19.128 71.5281 18.616 71.5281 18.04V9.304C71.5281 9.06933 71.6028 8.87733 71.7521 8.728C71.9015 8.57867 72.0935 8.504 72.3281 8.504C72.5628 8.504 72.7548 8.57867 72.9041 8.728C73.0535 8.87733 73.1281 9.06933 73.1281 9.304V18.04C73.1281 18.4347 73.2028 18.76 73.3521 19.016C73.5015 19.272 73.6935 19.4 73.9281 19.4H74.3281C74.5415 19.4 74.7121 19.4747 74.8401 19.624C74.9788 19.7733 75.0481 19.9653 75.0481 20.2C75.0481 20.4347 74.9468 20.6267 74.7441 20.776C74.5415 20.9253 74.2801 21 73.9601 21H73.9281ZM79.589 21C79.0557 21 78.5757 20.8667 78.149 20.6C77.7223 20.3227 77.3863 19.9493 77.141 19.48C76.8957 19.0107 76.773 18.4827 76.773 17.896V10.264C76.773 10.0293 76.8477 9.83733 76.997 9.688C77.1463 9.53867 77.3383 9.464 77.573 9.464C77.8077 9.464 77.9997 9.53867 78.149 9.688C78.2983 9.83733 78.373 10.0293 78.373 10.264V17.896C78.373 18.3227 78.4903 18.68 78.725 18.968C78.9597 19.256 79.2477 19.4 79.589 19.4H80.133C80.325 19.4 80.485 19.4747 80.613 19.624C80.7517 19.7733 80.821 19.9653 80.821 20.2C80.821 20.4347 80.7303 20.6267 80.549 20.776C80.3783 20.9253 80.1543 21 79.877 21H79.589ZM76.037 13.944C75.813 13.944 75.6317 13.88 75.493 13.752C75.3543 13.624 75.285 13.464 75.285 13.272C75.285 13.0587 75.3543 12.888 75.493 12.76C75.6317 12.632 75.813 12.568 76.037 12.568H79.733C79.957 12.568 80.1383 12.632 80.277 12.76C80.4157 12.888 80.485 13.0587 80.485 13.272C80.485 13.464 80.4157 13.624 80.277 13.752C80.1383 13.88 79.957 13.944 79.733 13.944H76.037ZM83.5629 21C83.3282 21 83.1309 20.9253 82.9709 20.776C82.8215 20.616 82.7469 20.4187 82.7469 20.184V13.064C82.7469 12.8187 82.8215 12.6213 82.9709 12.472C83.1309 12.3227 83.3282 12.248 83.5629 12.248C83.8082 12.248 84.0055 12.3227 84.1549 12.472C84.3042 12.6213 84.3789 12.8187 84.3789 13.064V20.184C84.3789 20.4187 84.3042 20.616 84.1549 20.776C84.0055 20.9253 83.8082 21 83.5629 21ZM83.5629 10.824C83.2749 10.824 83.0242 10.7227 82.8109 10.52C82.6082 10.3067 82.5069 10.056 82.5069 9.768C82.5069 9.48 82.6082 9.23467 82.8109 9.032C83.0242 8.81867 83.2749 8.712 83.5629 8.712C83.8509 8.712 84.0962 8.81867 84.2989 9.032C84.5122 9.23467 84.6189 9.48 84.6189 9.768C84.6189 10.056 84.5122 10.3067 84.2989 10.52C84.0962 10.7227 83.8509 10.824 83.5629 10.824ZM90.135 20.984C89.8043 20.984 89.5483 20.808 89.367 20.456L85.975 13.304C85.8897 13.1227 85.879 12.9467 85.943 12.776C86.0177 12.5947 86.1563 12.456 86.359 12.36C86.5403 12.264 86.7217 12.248 86.903 12.312C87.095 12.376 87.239 12.4987 87.335 12.68L90.503 19.512H89.735L92.871 12.68C92.967 12.4987 93.111 12.376 93.303 12.312C93.5057 12.248 93.7083 12.264 93.911 12.36C94.103 12.4453 94.231 12.5787 94.295 12.76C94.359 12.9413 94.3483 13.1227 94.263 13.304L90.871 20.456C90.711 20.808 90.4657 20.984 90.135 20.984ZM99.5001 21.064C98.6148 21.064 97.8255 20.8773 97.1321 20.504C96.4495 20.12 95.9108 19.5973 95.5161 18.936C95.1321 18.264 94.9401 17.496 94.9401 16.632C94.9401 15.7573 95.1215 14.9893 95.4841 14.328C95.8575 13.656 96.3695 13.1333 97.0201 12.76C97.6708 12.376 98.4175 12.184 99.2601 12.184C100.092 12.184 100.807 12.3707 101.404 12.744C102.001 13.1067 102.455 13.6133 102.764 14.264C103.084 14.904 103.244 15.6453 103.244 16.488C103.244 16.6907 103.175 16.8613 103.036 17C102.897 17.128 102.721 17.192 102.508 17.192H96.0601V15.912H102.46L101.804 16.36C101.793 15.8267 101.687 15.352 101.484 14.936C101.281 14.5093 100.993 14.1733 100.62 13.928C100.247 13.6827 99.7935 13.56 99.2601 13.56C98.6521 13.56 98.1295 13.6933 97.6921 13.96C97.2655 14.2267 96.9401 14.5947 96.7161 15.064C96.4921 15.5227 96.3801 16.0453 96.3801 16.632C96.3801 17.2187 96.5135 17.7413 96.7801 18.2C97.0468 18.6587 97.4148 19.0213 97.8841 19.288C98.3535 19.5547 98.8921 19.688 99.5001 19.688C99.8308 19.688 100.167 19.6293 100.508 19.512C100.86 19.384 101.143 19.24 101.356 19.08C101.516 18.9627 101.687 18.904 101.868 18.904C102.06 18.8933 102.225 18.9467 102.364 19.064C102.545 19.224 102.641 19.4 102.652 19.592C102.663 19.784 102.577 19.9493 102.396 20.088C102.033 20.376 101.58 20.6107 101.036 20.792C100.503 20.9733 99.9908 21.064 99.5001 21.064ZM105.87 15.528C105.87 14.888 106.024 14.3173 106.334 13.816C106.654 13.304 107.08 12.8987 107.614 12.6C108.147 12.3013 108.734 12.152 109.374 12.152C110.014 12.152 110.488 12.2587 110.798 12.472C111.118 12.6747 111.24 12.92 111.166 13.208C111.134 13.3573 111.07 13.4747 110.974 13.56C110.888 13.6347 110.787 13.6827 110.67 13.704C110.552 13.7253 110.424 13.72 110.286 13.688C109.603 13.5493 108.99 13.5387 108.446 13.656C107.902 13.7733 107.47 13.992 107.15 14.312C106.84 14.632 106.686 15.0373 106.686 15.528H105.87ZM105.886 21C105.63 21 105.432 20.936 105.294 20.808C105.155 20.6693 105.086 20.4667 105.086 20.2V13.048C105.086 12.792 105.155 12.5947 105.294 12.456C105.432 12.3173 105.63 12.248 105.886 12.248C106.152 12.248 106.35 12.3173 106.478 12.456C106.616 12.584 106.686 12.7813 106.686 13.048V20.2C106.686 20.456 106.616 20.6533 106.478 20.792C106.35 20.9307 106.152 21 105.886 21ZM115.811 21.064C115.064 21.064 114.371 20.952 113.731 20.728C113.102 20.4933 112.611 20.2 112.259 19.848C112.099 19.6773 112.03 19.4853 112.051 19.272C112.083 19.048 112.19 18.8667 112.371 18.728C112.584 18.5573 112.792 18.488 112.995 18.52C113.208 18.5413 113.39 18.632 113.539 18.792C113.72 18.9947 114.008 19.1867 114.403 19.368C114.808 19.5387 115.256 19.624 115.747 19.624C116.366 19.624 116.835 19.5227 117.155 19.32C117.486 19.1173 117.656 18.856 117.667 18.536C117.678 18.216 117.523 17.9387 117.203 17.704C116.894 17.4693 116.323 17.2773 115.491 17.128C114.414 16.9147 113.63 16.5947 113.139 16.168C112.659 15.7413 112.419 15.2187 112.419 14.6C112.419 14.056 112.579 13.608 112.899 13.256C113.219 12.8933 113.63 12.6267 114.131 12.456C114.632 12.2747 115.155 12.184 115.699 12.184C116.403 12.184 117.027 12.296 117.571 12.52C118.115 12.744 118.547 13.0533 118.867 13.448C119.016 13.6187 119.086 13.8 119.075 13.992C119.064 14.1733 118.974 14.328 118.803 14.456C118.632 14.5733 118.43 14.6107 118.195 14.568C117.96 14.5253 117.763 14.4293 117.603 14.28C117.336 14.024 117.048 13.848 116.739 13.752C116.43 13.656 116.072 13.608 115.667 13.608C115.198 13.608 114.798 13.688 114.467 13.848C114.147 14.008 113.987 14.2427 113.987 14.552C113.987 14.744 114.035 14.92 114.131 15.08C114.238 15.2293 114.44 15.368 114.739 15.496C115.038 15.6133 115.475 15.7307 116.051 15.848C116.851 16.008 117.48 16.2107 117.939 16.456C118.408 16.7013 118.744 16.9893 118.947 17.32C119.15 17.64 119.251 18.0133 119.251 18.44C119.251 18.9307 119.118 19.3733 118.851 19.768C118.595 20.1627 118.211 20.4773 117.699 20.712C117.198 20.9467 116.568 21.064 115.811 21.064ZM125.186 21.064C124.301 21.064 123.512 20.8773 122.818 20.504C122.136 20.12 121.597 19.5973 121.202 18.936C120.818 18.264 120.626 17.496 120.626 16.632C120.626 15.7573 120.808 14.9893 121.17 14.328C121.544 13.656 122.056 13.1333 122.706 12.76C123.357 12.376 124.104 12.184 124.946 12.184C125.778 12.184 126.493 12.3707 127.09 12.744C127.688 13.1067 128.141 13.6133 128.45 14.264C128.77 14.904 128.93 15.6453 128.93 16.488C128.93 16.6907 128.861 16.8613 128.722 17C128.584 17.128 128.408 17.192 128.194 17.192H121.746V15.912H128.146L127.49 16.36C127.48 15.8267 127.373 15.352 127.17 14.936C126.968 14.5093 126.68 14.1733 126.306 13.928C125.933 13.6827 125.48 13.56 124.946 13.56C124.338 13.56 123.816 13.6933 123.378 13.96C122.952 14.2267 122.626 14.5947 122.402 15.064C122.178 15.5227 122.066 16.0453 122.066 16.632C122.066 17.2187 122.2 17.7413 122.466 18.2C122.733 18.6587 123.101 19.0213 123.57 19.288C124.04 19.5547 124.578 19.688 125.186 19.688C125.517 19.688 125.853 19.6293 126.194 19.512C126.546 19.384 126.829 19.24 127.042 19.08C127.202 18.9627 127.373 18.904 127.554 18.904C127.746 18.8933 127.912 18.9467 128.05 19.064C128.232 19.224 128.328 19.4 128.338 19.592C128.349 19.784 128.264 19.9493 128.082 20.088C127.72 20.376 127.266 20.6107 126.722 20.792C126.189 20.9733 125.677 21.064 125.186 21.064ZM138.035 21C137.843 21 137.673 20.9413 137.523 20.824C137.374 20.7067 137.267 20.5467 137.203 20.344L133.987 9.656C133.881 9.304 133.886 9.02667 134.003 8.824C134.131 8.61067 134.334 8.504 134.611 8.504C134.793 8.504 134.958 8.55733 135.107 8.664C135.257 8.76 135.363 8.91467 135.427 9.128L138.227 18.888H137.875L140.467 9.224C140.51 9.064 140.606 8.93067 140.755 8.824C140.905 8.71733 141.075 8.664 141.267 8.664C141.438 8.664 141.598 8.712 141.747 8.808C141.907 8.89333 142.009 9.02667 142.051 9.208L144.659 18.888H144.339L147.155 9.048C147.262 8.68533 147.534 8.504 147.971 8.504C148.27 8.504 148.462 8.62133 148.547 8.856C148.633 9.08 148.633 9.34667 148.547 9.656L145.331 20.328C145.257 20.5307 145.145 20.696 144.995 20.824C144.857 20.9413 144.691 21 144.499 21C144.297 21 144.121 20.936 143.971 20.808C143.833 20.68 143.731 20.5253 143.667 20.344L141.091 10.392H141.475L138.867 20.328C138.793 20.5307 138.681 20.696 138.531 20.824C138.393 20.9413 138.227 21 138.035 21ZM152.341 21.064C151.456 21.064 150.667 20.8773 149.973 20.504C149.291 20.12 148.752 19.5973 148.357 18.936C147.973 18.264 147.781 17.496 147.781 16.632C147.781 15.7573 147.963 14.9893 148.325 14.328C148.699 13.656 149.211 13.1333 149.861 12.76C150.512 12.376 151.259 12.184 152.101 12.184C152.933 12.184 153.648 12.3707 154.245 12.744C154.843 13.1067 155.296 13.6133 155.605 14.264C155.925 14.904 156.085 15.6453 156.085 16.488C156.085 16.6907 156.016 16.8613 155.877 17C155.739 17.128 155.563 17.192 155.349 17.192H148.901V15.912H155.301L154.645 16.36C154.635 15.8267 154.528 15.352 154.325 14.936C154.123 14.5093 153.835 14.1733 153.461 13.928C153.088 13.6827 152.635 13.56 152.101 13.56C151.493 13.56 150.971 13.6933 150.533 13.96C150.107 14.2267 149.781 14.5947 149.557 15.064C149.333 15.5227 149.221 16.0453 149.221 16.632C149.221 17.2187 149.355 17.7413 149.621 18.2C149.888 18.6587 150.256 19.0213 150.725 19.288C151.195 19.5547 151.733 19.688 152.341 19.688C152.672 19.688 153.008 19.6293 153.349 19.512C153.701 19.384 153.984 19.24 154.197 19.08C154.357 18.9627 154.528 18.904 154.709 18.904C154.901 18.8933 155.067 18.9467 155.205 19.064C155.387 19.224 155.483 19.4 155.493 19.592C155.504 19.784 155.419 19.9493 155.237 20.088C154.875 20.376 154.421 20.6107 153.877 20.792C153.344 20.9733 152.832 21.064 152.341 21.064ZM162.327 21.064C161.495 21.064 160.748 20.872 160.087 20.488C159.426 20.0933 158.903 19.56 158.519 18.888C158.135 18.216 157.938 17.4587 157.927 16.616V9.32C157.927 9.07467 158.002 8.87733 158.151 8.728C158.311 8.57867 158.508 8.504 158.743 8.504C158.988 8.504 159.186 8.57867 159.335 8.728C159.484 8.87733 159.559 9.07467 159.559 9.32V13.64C159.932 13.192 160.38 12.84 160.903 12.584C161.436 12.3173 162.018 12.184 162.647 12.184C163.426 12.184 164.124 12.3813 164.743 12.776C165.362 13.16 165.847 13.688 166.199 14.36C166.562 15.0213 166.743 15.7733 166.743 16.616C166.743 17.4587 166.546 18.216 166.151 18.888C165.767 19.56 165.244 20.0933 164.583 20.488C163.922 20.872 163.17 21.064 162.327 21.064ZM162.327 19.624C162.871 19.624 163.356 19.496 163.783 19.24C164.21 18.9733 164.546 18.6107 164.791 18.152C165.047 17.6933 165.175 17.1813 165.175 16.616C165.175 16.04 165.047 15.528 164.791 15.08C164.546 14.632 164.21 14.28 163.783 14.024C163.356 13.7573 162.871 13.624 162.327 13.624C161.794 13.624 161.308 13.7573 160.871 14.024C160.444 14.28 160.108 14.632 159.863 15.08C159.618 15.528 159.495 16.04 159.495 16.616C159.495 17.1813 159.618 17.6933 159.863 18.152C160.108 18.6107 160.444 18.9733 160.871 19.24C161.308 19.496 161.794 19.624 162.327 19.624Z"
        fill="#FFFFFF" />
    <path fill-rule="evenodd" clip-rule="evenodd"
        d="M15.8464 2.96296H8.58307e-06L6.67216 9.63511H22.5185L15.8464 2.96296ZM6.67215 9.63512V25.4815L0 18.8093V2.96296L6.67215 9.63512Z"
        fill="#FFFFFF" />
</svg>